<?xml version="1.0" encoding="UTF-8" standalone="no"?>
<svg
   width="800"
   height="226.94099"
   version="1.1"
   id="svg4"
   sodipodi:docname="instagram.svg"
   inkscape:version="1.1.2 (b8e25be833, 2022-02-05)"
   xmlns:inkscape="http://www.inkscape.org/namespaces/inkscape"
   xmlns:sodipodi="http://sodipodi.sourceforge.net/DTD/sodipodi-0.dtd"
   xmlns="http://www.w3.org/2000/svg"
   xmlns:svg="http://www.w3.org/2000/svg">
  <defs
     id="defs8" />
  <sodipodi:namedview
     id="namedview6"
     pagecolor="#ffffff"
     bordercolor="#666666"
     borderopacity="1.0"
     inkscape:pageshadow="2"
     inkscape:pageopacity="0.0"
     inkscape:pagecheckerboard="0"
     showgrid="false"
     width="800px"
     inkscape:zoom="0.675"
     inkscape:cx="280"
     inkscape:cy="202.96296"
     inkscape:window-width="1366"
     inkscape:window-height="705"
     inkscape:window-x="-8"
     inkscape:window-y="-8"
     inkscape:window-maximized="1"
     inkscape:current-layer="svg4" />
  <path
     style="fill:#262626;stroke-width:1.0101"
     d="M 41.173499,0.79570976 C 24.799525,7.6496058 6.7990955,27.012716 1.1139675,51.317608 -6.0858005,82.112859 23.875792,95.135209 26.333257,90.865329 c 2.892412,-5.01714 -5.368766,-6.71379 -7.069264,-22.69177 -2.197768,-20.636933 7.396332,-43.696382 19.470828,-53.814197 2.244435,-1.879787 2.137668,0.736561 2.137668,5.576025 0,8.654087 -0.47818,86.342383 -0.47818,102.556023 0,21.93905 -0.906158,28.86699 -2.533624,35.7127 -1.648984,6.93743 -4.299984,11.62498 -2.291204,13.43062 2.244334,2.01978 11.826819,-2.78453 17.374271,-10.527 6.652194,-9.2859 8.98077,-20.43775 9.398849,-32.54848 0.504947,-14.5991 0.483432,-37.764831 0.504947,-50.978381 C 62.867748,65.462059 63.05169,29.975526 62.635126,8.6423268 62.533005,3.4097338 48.021146,-2.0800292 41.172691,0.78934576 M 622.61197,103.4689 c -0.52787,11.40559 -3.05262,20.32058 -6.18603,26.60882 -6.06615,12.17366 -18.65356,15.95374 -23.99798,-1.54635 -2.91252,-9.53933 -3.04858,-25.47095 -0.95465,-38.782791 2.13151,-13.56104 8.0832,-23.80268 17.93851,-22.87906 9.72066,0.91303 14.27064,13.43851 13.20015,36.598881 z m -163.87354,70.76309 c -0.13192,18.95109 -3.11453,35.56725 -9.51056,40.39328 -9.07158,6.84309 -21.26447,1.70999 -18.73972,-12.11881 2.23392,-12.2372 12.79882,-24.73449 28.27594,-40.00419 0,0 0.0323,3.4822 -0.0252,11.72972 z m -2.47756,-70.87349 c -0.55475,10.38822 -3.24787,20.82411 -6.18604,26.72063 -6.06482,12.17357 -18.74376,15.9793 -23.99798,-1.54634 -3.59251,-11.97428 -2.73212,-27.47206 -0.95464,-37.237061 2.30656,-12.66961 7.89743,-24.42348 17.9385,-24.42348 9.76239,0 14.57631,10.71034 13.20016,36.487061 z m -94.93223,-0.15889 c -0.59515,11.00216 -2.74151,20.19937 -6.18595,26.87952 -6.23178,12.08983 -18.56062,15.92405 -23.99798,-1.54634 -3.91978,-12.59751 -2.58533,-29.774571 -0.95474,-39.053611 2.4198,-13.7696 8.47917,-23.53197 17.93862,-22.60693 9.71663,0.94929 14.44024,13.4371 13.20005,36.328171 z m 435.05251,12.85103 c -2.37534,0 -3.45928,2.44837 -4.35604,6.56966 -3.11049,14.3298 -6.37988,17.56544 -10.59593,17.56544 -4.71018,0 -8.94238,-7.09551 -10.03036,-21.29946 -0.85505,-11.16882 -0.71767,-31.731021 0.37576,-52.184941 0.22343,-4.202488 -0.93586,-8.360549 -12.20772,-12.455371 -4.85028,-1.761296 -11.90077,-4.354715 -15.41115,4.119062 -9.91855,23.939949 -13.79934,42.94631 -14.71226,50.66737 -0.0475,0.3996 -0.53727,0.48121 -0.62344,-0.45242 -0.58171,-6.184 -1.88241,-17.421521 -2.04403,-41.031571 -0.0313,-4.606539 -1.00717,-8.527621 -6.09169,-11.737804 -3.29908,-2.083016 -13.31733,-5.76713 -16.92467,-1.384237 -3.12534,3.584522 -6.74483,13.231031 -10.50573,24.665811 -3.05654,9.29378 -5.18543,15.58081 -5.18543,15.58081 0,0 0.0404,-25.07651 0.0768,-34.588473 0.0162,-3.588463 -2.44533,-4.78421 -3.18725,-5.00098 -3.34079,-0.969588 -9.9227,-2.589374 -12.71672,-2.589374 -3.44716,0 -4.2914,1.926856 -4.2914,4.73441 0,0.367579 -0.54404,33.015657 -0.54404,55.844718 0,0.99161 0,2.07351 0.0101,3.2228 -1.90666,10.49246 -8.08996,24.7358 -14.81457,24.7358 -6.73271,0 -9.90916,-5.95471 -9.90916,-33.17049 0,-15.876981 0.47666,-22.780671 0.71101,-34.263831 0.13596,-6.61421 0.39858,-11.693367 0.38373,-12.845984 -0.0495,-3.534623 -6.16169,-5.316129 -9.00561,-5.974508 -2.85737,-0.663939 -5.34039,-0.921108 -7.27937,-0.810698 -2.74423,0.154839 -4.68594,1.955236 -4.68594,4.431481 0,1.327667 0.0151,3.852402 0.0151,3.852402 -3.53464,-5.554409 -9.21966,-9.420341 -13.00217,-10.540639 -10.18784,-3.025631 -20.81879,-0.344743 -28.83735,10.875988 -6.37321,8.915398 -10.21479,19.013008 -11.72699,33.520598 -1.10546,10.606101 -0.74466,21.361391 1.21998,30.457191 -2.37393,10.26357 -6.78118,14.46849 -11.60712,14.46849 -7.00603,0 -12.0852,-11.43548 -11.49541,-31.21262 0.38909,-13.008221 2.99201,-22.137051 5.83725,-35.343831 1.21323,-5.62986 0.22758,-8.57742 -2.24474,-11.402459 -2.26756,-2.590685 -7.09886,-3.914312 -14.04438,-2.286345 -4.94715,1.160697 -12.02046,2.408875 -18.49194,3.367654 0,0 0.3905,-1.557968 0.711,-4.304822 1.68312,-14.405252 -13.97034,-13.236471 -18.96466,-8.635394 -2.98121,2.746946 -5.01049,5.986729 -5.78069,11.811837 -1.22131,9.243979 6.31796,13.604059 6.31796,13.604059 -2.47364,11.32296 -8.53705,26.114591 -14.79711,36.808771 -3.35282,5.72966 -5.91796,9.97539 -9.22916,14.4887 -0.0121,-1.6806 -0.0212,-3.36099 -0.0273,-5.03371 -0.0758,-23.805411 0.24101,-42.541051 0.38101,-49.293941 0.13606,-6.61411 0.40131,-11.558617 0.38647,-12.711235 -0.0374,-2.585334 -1.54717,-3.561592 -4.68726,-4.79775 -2.77655,-1.093327 -6.05946,-1.850086 -9.4648,-2.114025 -4.29817,-0.33525 -6.88755,1.944436 -6.82028,4.64017 0.0131,0.508989 0.0131,3.634323 0.0131,3.634323 -3.53473,-5.554509 -9.21976,-9.420341 -13.00216,-10.540739 -10.18795,-3.024319 -20.8188,-0.343329 -28.83747,10.875988 -6.37179,8.915398 -10.5447,21.426028 -11.72701,33.410188 -1.10141,11.169341 -0.89807,20.661201 0.60332,28.656911 -1.61988,8.00661 -6.27753,16.37928 -11.54389,16.37928 -6.73269,0 -10.56359,-5.95481 -10.56359,-33.17049 0,-15.876981 0.47667,-22.780671 0.71101,-34.262621 0.13596,-6.61411 0.39858,-11.694577 0.38374,-12.845884 -0.0495,-3.534623 -6.1618,-5.316129 -9.00562,-5.975918 -2.97585,-0.688079 -5.54503,-0.941208 -7.51775,-0.795858 -2.60281,0.193939 -4.43281,2.524834 -4.43281,4.263211 v 4.005932 c -3.53463,-5.554509 -9.21965,-9.420341 -13.00216,-10.540739 -10.18784,-3.024319 -20.75951,-0.300198 -28.83736,10.875988 -5.26765,7.287438 -9.53218,15.366668 -11.72703,33.251298 -0.63424,5.168371 -0.91434,10.008131 -0.87797,14.531841 -2.10059,12.84629 -11.37823,27.65236 -18.96729,27.65236 -4.44089,0 -8.67037,-8.61358 -8.67037,-26.97105 0,-24.453091 1.51354,-59.269017 1.76938,-62.624552 0,0 9.58866,-0.162928 11.44561,-0.184544 4.78281,-0.05252 9.11471,0.06061 15.48509,-0.265251 3.19534,-0.162928 6.27352,-11.630026 2.97584,-13.049209 -1.49463,-0.642319 -12.05823,-1.205144 -16.24588,-1.294033 -3.5212,-0.0798 -13.32399,-0.805247 -13.32399,-0.805247 0,0 0.87929,-23.1092482 1.08393,-25.5504452 0.17374,-2.034633 -2.45877,-3.082203 -3.96826,-3.717855 -3.67059,-1.552515 -6.95482,-2.295844 -10.84763,-3.09836404 -5.37816,-1.109488 -7.81805,-0.02424 -8.29471,4.51492104 -0.71768,6.8889462 -1.08939,27.0666972 -1.08939,27.0666972 -3.94665,0 -17.42821,-0.77151 -21.37617,-0.77151 -3.66798,0 -7.62685,15.774647 -2.55575,15.968484 5.83452,0.226261 16.00225,0.421513 22.74292,0.624844 0,0 -0.3002,35.389563 -0.3002,46.315363 0,1.16241 0.0101,2.28179 0.0121,3.36795 -3.70977,19.336251 -16.77648,29.781241 -16.77648,29.781241 2.80614,-12.79204 -2.92606,-22.39824 -13.25126,-30.529921 -3.80403,-2.99655 -11.3137,-8.66944 -19.71607,-14.88597 0,0 4.86644,-4.79633 9.18208,-14.44556 3.05795,-6.835014 3.18997,-14.657078 -4.31564,-16.381914 -12.40167,-2.851999 -22.62719,6.255917 -25.67717,15.979284 -2.36312,7.53248 -1.10273,13.12195 3.52665,18.92816 0.33798,0.42424 0.70424,0.85778 1.08262,1.29404 -2.79948,5.39582 -6.64522,12.66043 -9.90248,18.294031 -9.04067,15.64132 -15.87024,28.01327 -21.03154,28.01327 -4.12583,0 -4.07058,-12.56074 -4.07058,-24.32106 0,-10.138431 0.74869,-25.380861 1.34656,-41.162181 0.19788,-5.219159 -2.41172,-8.192373 -6.78655,-10.885387 -2.65805,-1.636047 -8.33106,-4.8529 -11.6166,-4.8529 -4.91776,0 -19.10599,0.669188 -32.5121,39.448037 -1.68947,4.88774 -5.00856,13.793861 -5.00856,13.793861 l 0.28566,-46.633152 c 0,-1.093327 -0.58233,-2.150385 -1.915652,-2.873514 -2.25908,-1.226657 -8.2928,-3.735232 -13.65792,-3.735232 -2.55626,0 -3.83191,1.188987 -3.83191,3.558873 l -0.46797,72.957935 c 0,5.5434 0.14454,12.01032 0.69262,14.83879 0.54606,2.832 1.4307,5.13583 2.52635,6.50652 1.09404,1.36808 2.35959,2.41171 4.44614,2.84241 1.94202,0.3998 12.576012,1.76534 13.128742,-2.29847 0.66222,-4.87017 0.68757,-10.13792 6.27148,-29.78406 8.693,-30.586471 20.0271,-45.510121 25.35526,-50.810081 0.9316,-0.92636 1.99533,-0.98161 1.94412,0.53454 -0.22747,6.70581 -1.02737,23.46207 -1.56585,37.697651 -1.44332,38.09612 5.48705,45.15729 15.39094,45.15729 7.57695,0 18.25771,-7.52854 29.70726,-26.5859 7.13805,-11.87629 14.06863,-23.52126 19.0481,-31.914241 3.4701,3.21229 7.36421,6.669651 11.25571,10.363061 9.0433,8.58309 12.01249,16.73879 10.04248,24.47591 -1.50676,5.91481 -7.18108,12.01043 -17.28011,6.08572 -2.94354,-1.72847 -4.1999,-3.06392 -7.15958,-5.01259 -1.5902,-1.04687 -4.01806,-1.3598 -5.47361,-0.26313 -3.7811,2.85089 -5.94361,6.47703 -7.17836,10.96639 -1.2011,4.36836 3.17373,6.67754 7.70886,8.69732 3.90493,1.73838 12.29793,3.31362 17.65043,3.49301 20.85516,0.69747 37.56167,-10.06953 49.19161,-37.843 2.08182,23.98581 10.94198,37.55886 26.33565,37.55886 10.29157,0 20.61003,-13.30275 25.12233,-26.38933 1.29535,5.33452 3.2128,9.97337 5.68907,13.89618 11.86165,18.79361 34.87256,14.74859 46.43131,-1.2102 3.57372,-4.93118 4.11766,-6.70318 4.11766,-6.70318 1.68585,15.06899 13.82085,20.33401 20.769,20.33401 7.78169,0 15.81641,-3.67877 21.4476,-16.35637 0.65989,1.37586 1.38018,2.68978 2.16665,3.93533 11.86157,18.79362 34.87258,14.7486 46.43122,-1.2102 0.54535,-0.74857 1.01798,-1.42766 1.43141,-2.03715 l 0.33929,9.89802 c 0,0 -6.59401,6.04895 -10.64167,9.75974 -17.81468,16.34423 -31.36078,28.74446 -32.35725,43.18467 -1.27918,18.41251 13.65389,25.2556 24.95132,26.15236 11.99763,0.95211 22.27172,-5.67542 28.58695,-14.95061 5.55442,-8.16389 9.19016,-25.73489 8.9235,-43.08903 -0.10637,-6.94934 -0.28142,-15.78545 -0.41879,-25.2569 6.26139,-7.27127 13.31591,-16.46141 19.81163,-27.21882 7.07877,-11.72326 14.66509,-27.466601 18.54983,-39.718751 0,0 6.59138,0.0566 13.6256,-0.40394 2.25008,-0.14677 2.89645,0.31232 2.48038,1.96191 -0.50232,1.99282 -8.88712,34.333931 -1.23483,55.878451 5.23805,14.74859 17.04589,19.49371 24.04646,19.49371 8.19502,0 16.03458,-6.18875 20.23577,-15.37869 0.50625,1.02454 1.03544,2.01594 1.61311,2.93119 11.86168,18.79362 34.79188,14.72435 46.43133,-1.2102 2.62706,-3.59512 4.11766,-6.70318 4.11766,-6.70318 2.49785,15.59556 14.6261,20.41341 21.57283,20.41341 7.23634,0 14.10369,-2.96655 19.67568,-16.15031 0.23293,5.80482 0.59919,10.55135 1.17817,12.0478 0.35283,0.91515 2.40899,2.06403 3.90494,2.61888 6.61956,2.45473 13.37116,1.29393 15.86892,0.78899 1.7303,-0.35021 3.07958,-1.73838 3.26403,-5.323 0.48474,-9.41216 0.18717,-25.22601 3.0405,-36.97856 4.78967,-19.724031 9.25743,-27.374991 11.37691,-31.162741 1.18626,-2.12221 2.52474,-2.47231 2.57323,-0.22626 0.1,4.54452 0.32586,17.89009 2.1814,35.820481 1.36261,13.1872 3.18322,20.98169 4.58221,23.44855 3.99251,7.0545 8.92349,7.38854 12.93893,7.38854 2.55433,0 7.89603,-0.70586 7.41805,-5.19512 -0.23294,-2.18817 0.17505,-15.71142 4.89735,-35.14322 3.08353,-12.689621 8.22461,-24.155511 10.07885,-28.347201 0.68404,-1.54584 1.00181,-0.32727 0.99101,-0.0899 -0.39051,8.73903 -1.26707,37.323321 2.29312,52.956541 4.82605,21.17826 18.7869,23.54814 23.65193,23.54814 10.38581,0 18.87981,-7.90036 21.74121,-28.6879 0.68939,-5.0026 -0.33132,-8.8654 -3.38927,-8.8654"
     id="path2" />
</svg>
